<?xml version="1.0" encoding="utf-8"?>
<!-- Generator: Adobe Illustrator 24.1.0, SVG Export Plug-In . SVG Version: 6.00 Build 0)  -->
<svg version="1.1" id="Layer_1" xmlns="http://www.w3.org/2000/svg" xmlns:xlink="http://www.w3.org/1999/xlink" x="0px" y="0px"
	 viewBox="0 0 960 560" style="enable-background:new 0 0 960 560;" xml:space="preserve">
<style type="text/css">
	.st0{fill:#38648C;}
	.st1{opacity:0.1;enable-background:new    ;}
	.st2{fill:#FCAE7A;}
	.st3{fill:#F28B74;}
	.st4{opacity:0.1;stroke:#EA7E6C;stroke-miterlimit:10;enable-background:new    ;}
	.st5{font-family:'Seravek';}
	.st6{font-size:111.8254px;}
	.st7{fill:none;stroke:#38648C;stroke-miterlimit:10;}
	.st8{fill:#EA7E6C;}
	.st9{font-size:123.3111px;}
	.st10{enable-background:new    ;}
</style>
<path class="st0" d="M437.1,344.3c-5.2,0-9.4-4.6-9.4-10.4v-85.1c0-7.1-4.1-13.3-10.3-15.5l-33.5-11.6c-5-1.7-7.7-7.5-6.2-13
	c1.6-5.5,6.8-8.5,11.8-6.8l33.5,11.6c14,4.8,23.5,19,23.5,35.2v85.1C446.5,339.6,442.3,344.3,437.1,344.3z"/>
<path class="st1" d="M421.1,235.3c-2.8-10.2-7.8-19.6-14.7-27.4l-16.9-5.8c-5-1.7-10.2,1.3-11.8,6.8c-1.6,5.5,1.2,11.3,6.2,13
	l33.5,11.6C418.7,233.8,420,234.5,421.1,235.3z"/>
<path class="st0" d="M482.4,344.3c-5.2,0-9.4-4.6-9.4-10.4v-85.1c0-16.2,9.4-30.4,23.5-35.2L530,202c5-1.7,10.2,1.3,11.8,6.8
	s-1.2,11.3-6.2,13l-33.5,11.6c-6.2,2.1-10.3,8.3-10.3,15.5V334C491.8,339.6,487.6,344.3,482.4,344.3z"/>
<path class="st1" d="M498.4,235.3c2.8-10.2,7.8-19.6,14.7-27.4l16.9-5.8c5-1.7,10.2,1.3,11.8,6.8s-1.2,11.3-6.2,13l-33.5,11.6
	C500.7,233.8,499.5,234.5,498.4,235.3z"/>
<path class="st2" d="M538.5,197.4L501,183c-7.9-3-14.5-9.1-18.6-17.1l-8.8-17.1c-2.9-5.6-4.5-12-4.5-18.5v-60
	c0-5.6-3.9-10.4-8.9-10.6c-5.4-0.3-9.9,4.5-9.9,10.3v60.3c0,6.5-1.5,12.9-4.5,18.5l-8.8,17.1c-4.1,8-10.8,14.1-18.6,17.1l-37.2,14.3
	c-4.9,1.9-7.7,7.7-6.1,13.1c1.3,4.4,5,7.1,8.9,7.1c1,0,2.1-0.2,3.1-0.6l37.5-14.4c12.2-4.7,22.4-14.1,28.8-26.4l5.6-10.7
	c0.4-0.7,1.3-0.7,1.6,0l5.6,10.7c6.4,12.3,16.6,21.7,28.8,26.4l37.5,14.4c1,0.4,2.1,0.6,3.1,0.6c3.9,0,7.5-2.7,8.9-6.9
	C546,205.2,543.4,199.3,538.5,197.4z"/>
<path class="st1" d="M510.4,207.2c1.3-1.4,1.6-2.6,1.6-3.9s-0.3-2.4-1.6-3.9c-4.7-5.2-8.5-11.1-11.5-17.5c0.8,0.4,1.6,0.7,2.4,1.1
	l37.2,14.3c4.9,1.9,7.7,7.7,6.1,13.1c-1.3,4.4-5,7.1-8.9,7.1c-1,0-2.1-0.2-3.1-0.6l-23-8.9C509.8,207.8,510.1,207.5,510.4,207.2z"/>
<path class="st1" d="M409.4,207.1c-1.3-1.4-1.6-2.6-1.6-3.9s0.3-2.4,1.6-3.9c4.7-5.2,8.5-11.1,11.5-17.5c-0.8,0.4-1.6,0.7-2.4,1.1
	l-37.2,14.3c-4.9,1.9-7.7,7.7-6.1,13.1c1.3,4.4,5,7.1,8.9,7.1c1,0,2.1-0.2,3.1-0.6l23-8.9C409.9,207.7,409.6,207.4,409.4,207.1z"/>
<path class="st3" d="M302.8,203.2c0,27.1,6.6,62.4,30,88.2c18.3,20.2,48,20.2,66.3,0s18.3-52.9,0-73c-5.2-5.8-5.8-11.9-5.8-15.1
	c0-3.2,0.6-9.4,5.8-15.1c18.3-20.2,18.3-52.9,0-73c-18.3-20.2-48-20.2-66.3,0C309.4,140.8,302.8,176.2,302.8,203.2z"/>
<path class="st4" d="M324.6,125.5c-16.7,24.3-21.8,54.1-21.8,77.7c0,27.1,6.6,62.4,30,88.2c18.3,20.2,48,20.2,66.3,0
	c1.4-1.6,2.7-3.2,3.9-4.9C340.4,306.2,294.5,201.5,324.6,125.5z"/>
<path class="st3" d="M616.7,203.2c0,27.1-6.6,62.4-30,88.2c-18.3,20.2-48,20.2-66.3,0s-18.3-52.9,0-73c5.2-5.8,5.8-11.9,5.8-15.1
	c0-3.2-0.6-9.4-5.8-15.1c-18.3-20.2-18.3-52.9,0-73c18.3-20.2,48-20.2,66.3,0C610.1,140.8,616.7,176.2,616.7,203.2z"/>
<path class="st1" d="M554.9,280.4c-29-2.3-37.9-36.6-32.1-65.2c-0.7,1.1-1.5,2.1-2.4,3.2c-18.3,20.2-18.3,52.9,0,73
	c18.3,20.2,48,20.2,66.3,0c19.7-21.7,27.5-50.1,29.5-74.6C596.7,266.7,585.3,282.8,554.9,280.4z"/>
<path class="st1" d="M393.4,202.1c-11.3,3.4-17.4,13.2-20.1,19.1c-1.2,2.5-0.3,5.5,2,6.8c0.7,0.4,1.4,0.6,2.1,0.6
	c1.7,0,3.3-1,4.1-2.8c1.9-4.2,6.1-11,13.7-13.7c-1.5-3.6-1.8-6.9-1.8-8.9C393.3,202.9,393.3,202.5,393.4,202.1z M393.4,201.1
	c0.2-2.6,1-6,3.1-9.6c-8.4-2.2-13.1-9.7-15.1-14.1c-1.2-2.5-3.9-3.5-6.2-2.2c-2.3,1.3-3.2,4.3-2,6.8
	C376,187.9,382.1,197.7,393.4,201.1z"/>
<path class="st1" d="M544.2,175.2c-2.3-1.3-5-0.3-6.2,2.2c-2.1,4.4-6.7,11.9-15.1,14.1c2.2,3.5,2.9,7,3.1,9.6
	c11.3-3.4,17.4-13.2,20.2-19.1C547.4,179.5,546.5,176.5,544.2,175.2z"/>
<path class="st1" d="M538,225.8c0.8,1.8,2.4,2.8,4.1,2.8c0.7,0,1.4-0.2,2.1-0.6c2.3-1.3,3.2-4.3,2-6.8c-2.7-5.9-8.8-15.6-20.1-19.1
	c0,0.4,0,0.8,0,1.1c0,2-0.2,5.3-1.8,8.9C531.9,214.8,536.1,221.6,538,225.8z"/>
<g>
	<text transform="matrix(0.9662 0 0 1 182.3354 441.4717)" class="st0 st5 st6"> </text>
	<text transform="matrix(0.9662 0 0 1 182.3354 441.4717)" class="st7 st5 st6"> </text>
	<text transform="matrix(0.9662 0 0 1 241.7588 441.4717)" class="st8 st5 st9">S</text>
	<text transform="matrix(0.9662 0 0 1 296.7588 441.4717)" class="st8 st5 st6">ui</text>
	<g class="st10">
		<path class="st0" d="M393.3,367h20c6.2,0,11.8,0.9,16.9,2.8c5,1.9,9.4,4.5,13,7.8s6.4,7.3,8.3,11.8s2.9,9.5,2.9,14.9
			s-1,10.3-2.9,14.9c-1.9,4.5-4.7,8.5-8.3,11.8c-3.6,3.3-7.9,5.9-13,7.8c-5,1.9-10.7,2.8-16.9,2.8h-20V367z M413.3,433.2
			c4.3,0,8.4-0.7,12.2-2c3.8-1.3,7.1-3.2,9.9-5.6c2.8-2.5,5-5.5,6.6-9.1s2.4-7.7,2.4-12.3c0-4.5-0.8-8.6-2.4-12.2s-3.8-6.7-6.6-9.1
			s-6.1-4.3-9.9-5.6c-3.8-1.3-7.8-2-12.2-2h-10v57.9L413.3,433.2L413.3,433.2z"/>
		<path class="st0" d="M465.3,371.9c0-1.7,0.6-3.2,1.7-4.5s2.6-1.9,4.5-1.9s3.4,0.6,4.5,1.9s1.7,2.8,1.7,4.5s-0.6,3.2-1.7,4.5
			s-2.6,1.9-4.5,1.9s-3.4-0.6-4.5-1.9C465.8,375.1,465.3,373.6,465.3,371.9z M466.6,441.5v-53.7h9.7v53.7H466.6z"/>
		<path class="st0" d="M521.7,434.8c-0.8,1-1.8,1.9-2.9,2.9c-1.2,0.9-2.5,1.8-3.9,2.5c-1.5,0.7-3.1,1.3-4.9,1.8
			c-1.8,0.4-3.6,0.7-5.6,0.7c-2.2,0-4.1-0.4-5.9-1.1s-3.3-1.7-4.6-3c-1.3-1.3-2.3-2.8-3.1-4.7c-0.8-1.9-1.1-3.9-1.1-6.2
			c0-4.9,1.7-8.6,5-11.2c3.3-2.5,7.8-4,13.5-4.4c2.3-0.1,4.6-0.3,6.9-0.3c2.3-0.1,4.4-0.1,6.5-0.1v-2.3c0-4.5-0.9-8.1-2.8-10.7
			c-1.9-2.6-5-3.9-9.3-3.9c-2.5,0-4.9,0.3-7.2,1s-4.4,1.6-6.5,2.8l-2.3-7.4c2.7-1.7,5.5-2.9,8.4-3.6c2.8-0.7,6-1,9.3-1
			c6.1,0,11,1.9,14.6,5.8c3.6,3.9,5.5,9.4,5.5,16.7v32.3h-9.5L521.7,434.8L521.7,434.8z M507.2,435.2c2.8,0,5.4-0.7,7.9-2
			c2.4-1.3,4.6-3,6.4-5v-10c-2.2,0.1-4.2,0.3-6.1,0.4c-1.9,0.2-3.7,0.3-5.6,0.6c-1.5,0.2-2.9,0.4-4.3,0.8c-1.3,0.4-2.5,0.9-3.5,1.5
			s-1.7,1.5-2.3,2.5c-0.5,1-0.8,2.2-0.8,3.6c0,2.5,0.7,4.4,2.2,5.6C502.6,434.6,504.6,435.2,507.2,435.2z"/>
		<path class="st0" d="M555.8,427.5c0,2.2,0.4,3.8,1.2,5s2.2,1.7,4.3,1.7c1.6,0,3.2-0.2,4.9-0.7l0.4,7.6c-2.4,0.8-5,1.2-7.9,1.2
			c-4.5,0-7.8-1.4-9.7-4.1c-1.9-2.8-2.9-6.2-2.9-10.2v-65.5h9.7V427.5z"/>
		<path class="st0" d="M581,464.5l7.7-22.5l-19-54.2h10l13.6,43.9l13.4-43.9h10l-26.3,76.7H581z"/>
		<path class="st0" d="M659.4,426.2c0,2.5-0.5,4.8-1.6,6.8c-1,2-2.5,3.7-4.3,5.1s-4,2.5-6.5,3.3s-5.3,1.2-8.2,1.2
			c-1.3,0-2.7-0.1-4.1-0.2c-1.4-0.2-2.9-0.4-4.3-0.7c-1.4-0.3-2.8-0.7-4.2-1.1c-1.3-0.4-2.5-0.8-3.4-1.3l1.6-7.9
			c1.9,0.8,4,1.6,6.4,2.2c2.4,0.7,5.1,1,8,1c3.1,0,5.7-0.6,7.8-1.7c2.1-1.2,3.2-3,3.2-5.5c0-1.2-0.3-2.3-0.9-3.2
			c-0.6-0.9-1.3-1.8-2.3-2.5c-0.9-0.7-2-1.4-3.3-2s-2.6-1.2-3.9-1.8c-1.9-0.7-3.7-1.6-5.6-2.5c-1.9-0.9-3.6-2-5.1-3.4
			c-1.5-1.3-2.8-2.8-3.8-4.5s-1.5-3.8-1.5-6.2c0-2.6,0.5-4.8,1.6-6.7c1-1.9,2.4-3.4,4.1-4.6c1.7-1.2,3.7-2.1,5.9-2.6
			c2.2-0.6,4.5-0.8,6.9-0.8c2.7,0,5.4,0.3,8,1c2.6,0.6,4.9,1.5,7,2.6l-1.6,7.6c-2.1-1-4.3-1.8-6.5-2.4c-2.3-0.6-4.6-0.8-6.9-0.8
			c-2.5,0-4.6,0.4-6.4,1.3s-2.6,2.5-2.6,4.9c0,1.1,0.3,2.1,0.9,2.9c0.6,0.8,1.4,1.5,2.4,2.1s2,1.2,3.2,1.7s2.2,1,3.2,1.6
			c0.9,0.4,2.3,1.1,4.2,1.9s3.7,1.9,5.6,3.2c1.8,1.3,3.4,2.9,4.8,4.9C658.7,421,659.4,423.4,659.4,426.2z"/>
		<path class="st0" d="M691.3,386.7c3.3,0,6.2,0.6,8.7,1.7s4.6,2.6,6.3,4.6c1.7,1.9,3,4.2,3.8,6.9c0.8,2.6,1.2,5.5,1.2,8.6
			s-0.4,6.1-1.1,9.1h-32.7c0.1,2.6,0.4,5,1.1,7c0.6,2.1,1.6,3.9,3,5.4c1.3,1.5,3.1,2.7,5.2,3.5c2.1,0.8,4.7,1.2,7.7,1.2
			c2.8,0,5.5-0.3,7.9-0.9c2.5-0.6,4.8-1.3,6.9-2.2l1.3,7.5c-2.3,1.1-5,2-8,2.6c-3.1,0.6-6.2,1-9.5,1c-4.3,0-8.1-0.7-11.3-2.2
			s-5.9-3.4-7.9-5.9c-2.1-2.5-3.7-5.4-4.7-8.8s-1.6-7-1.6-10.8c0-3.9,0.5-7.5,1.6-11c1.1-3.4,2.6-6.4,4.7-9s4.6-4.6,7.5-6
			C684.3,387.4,687.6,386.7,691.3,386.7z M691,394.2c-2.1,0-3.9,0.4-5.5,1.2c-1.6,0.8-3,1.9-4.1,3.4c-1.2,1.4-2.1,3.1-2.7,5
			c-0.6,1.9-1,3.9-1.2,6h24.4c0.2-2.1,0.2-4.1-0.1-6s-0.9-3.6-1.7-5c-0.9-1.4-2.1-2.5-3.6-3.4C695,394.6,693.1,394.2,691,394.2z"/>
	</g>
</g>
</svg>
