<?xml version="1.0" encoding="utf-8"?>
<!-- Generator: Adobe Illustrator 16.0.0, SVG Export Plug-In . SVG Version: 6.00 Build 0)  -->
<!DOCTYPE svg PUBLIC "-//W3C//DTD SVG 1.1//EN" "http://www.w3.org/Graphics/SVG/1.1/DTD/svg11.dtd">
<svg version="1.1" id="Layer_1" xmlns="http://www.w3.org/2000/svg" xmlns:xlink="http://www.w3.org/1999/xlink" x="0px" y="0px"
	 width="960px" height="560px" viewBox="0 0 960 560" enable-background="new 0 0 960 560" xml:space="preserve">
<path fill="#38648C" d="M437.12,344.26c-5.188,0-9.393-4.634-9.393-10.352v-85.072c0-7.118-4.143-13.332-10.309-15.459
	l-33.471-11.551c-4.95-1.709-7.708-7.517-6.157-12.974c1.552-5.455,6.824-8.493,11.775-6.785l33.471,11.553
	c14.045,4.846,23.48,19,23.48,35.216v85.072C446.517,339.626,442.31,344.26,437.12,344.26z"/>
<path opacity="0.1" enable-background="new    " d="M421.093,235.297c-2.788-10.201-7.774-19.564-14.675-27.412l-16.854-5.818
	c-4.95-1.709-10.222,1.328-11.774,6.784c-1.552,5.458,1.206,11.265,6.157,12.973l33.471,11.552
	C418.746,233.834,419.973,234.492,421.093,235.297z"/>
<path fill="#38648C" d="M482.372,344.26c-5.192,0-9.395-4.634-9.395-10.352v-85.072c0-16.215,9.434-30.37,23.479-35.216
	l33.473-11.553c4.951-1.709,10.223,1.329,11.773,6.785c1.551,5.457-1.205,11.265-6.156,12.974l-33.473,11.551
	c-6.166,2.128-10.309,8.341-10.309,15.459v85.072C491.765,339.626,487.56,344.26,482.372,344.26z"/>
<path opacity="0.1" enable-background="new    " d="M498.399,235.297c2.785-10.201,7.775-19.564,14.674-27.412l16.855-5.818
	c4.951-1.709,10.223,1.328,11.773,6.784c1.551,5.458-1.205,11.265-6.156,12.973l-33.473,11.552
	C500.745,233.834,499.521,234.492,498.399,235.297z"/>
<path fill="#FCAE7A" d="M538.538,197.367l-37.461-14.428c-7.883-3.036-14.502-9.108-18.635-17.1l-8.849-17.089
	c-2.923-5.649-4.46-12.042-4.46-18.546V70.241c0-5.573-3.888-10.37-8.941-10.631c-5.396-0.282-9.85,4.456-9.85,10.34v60.257
	c0,6.504-1.537,12.896-4.459,18.546l-8.847,17.088c-4.136,7.991-10.755,14.064-18.637,17.101l-37.205,14.329
	c-4.882,1.881-7.7,7.708-6.077,13.118c1.311,4.365,4.988,7.107,8.92,7.107c1.029,0,2.076-0.188,3.101-0.583l37.463-14.427
	c12.16-4.684,22.375-14.056,28.758-26.388l5.558-10.742c0.364-0.699,1.278-0.699,1.641,0l5.559,10.74
	c6.386,12.332,16.599,21.706,28.76,26.389l37.462,14.427c1.025,0.395,2.07,0.583,3.102,0.583c3.881,0,7.516-2.672,8.869-6.938
	C546.019,205.158,543.435,199.254,538.538,197.367z"/>
<path opacity="0.1" enable-background="new    " d="M510.392,207.187c1.299-1.431,1.562-2.58,1.562-3.865
	c0-1.285-0.264-2.435-1.562-3.866c-4.717-5.193-8.549-11.091-11.461-17.468c0.789,0.378,1.59,0.734,2.41,1.05l37.205,14.33
	c4.883,1.88,7.701,7.708,6.076,13.117c-1.309,4.364-4.99,7.107-8.922,7.107c-1.025,0-2.072-0.187-3.1-0.582l-23.031-8.871
	C509.845,207.822,510.108,207.497,510.392,207.187z"/>
<path opacity="0.1" enable-background="new    " d="M409.357,207.089c-1.299-1.433-1.566-2.581-1.566-3.866
	c0-1.285,0.267-2.435,1.566-3.867c4.714-5.194,8.549-11.092,11.46-17.468c-0.789,0.379-1.59,0.735-2.408,1.051l-37.208,14.33
	c-4.881,1.88-7.7,7.707-6.076,13.117c1.312,4.365,4.989,7.108,8.921,7.108c1.028,0,2.075-0.188,3.1-0.583l23.034-8.87
	C409.904,207.724,409.64,207.399,409.357,207.089z"/>
<path fill="#F28B74" d="M302.821,203.223c0,27.063,6.623,62.378,30.028,88.169c18.305,20.169,47.983,20.169,66.288,0
	c18.306-20.171,18.306-52.872,0-73.042c-5.242-5.776-5.798-11.947-5.798-15.127c0-3.181,0.556-9.353,5.798-15.128
	c18.306-20.17,18.306-52.872,0-73.042c-18.305-20.17-47.983-20.17-66.288,0C309.444,140.843,302.821,176.159,302.821,203.223z"/>
<path opacity="0.1" stroke="#EA7E6C" stroke-miterlimit="10" enable-background="new    " d="M324.571,125.534
	c-16.729,24.334-21.75,54.134-21.75,77.689c0,27.063,6.623,62.378,30.028,88.169c18.305,20.169,47.983,20.169,66.288,0
	c1.411-1.557,2.702-3.193,3.897-4.889C340.426,306.197,294.531,201.458,324.571,125.534z"/>
<path fill="#F28B74" d="M616.673,203.223c0,27.063-6.621,62.378-30.029,88.169c-18.305,20.169-47.984,20.169-66.287,0
	c-18.305-20.171-18.305-52.872,0-73.042c5.238-5.776,5.797-11.947,5.797-15.127c0-3.181-0.559-9.353-5.797-15.128
	c-18.305-20.17-18.305-52.872,0-73.042c18.303-20.17,47.982-20.17,66.287,0C610.052,140.843,616.673,176.159,616.673,203.223z"/>
<path opacity="0.1" enable-background="new    " d="M554.927,280.406c-29.037-2.316-37.854-36.639-32.143-65.246
	c-0.67,1.064-1.469,2.134-2.428,3.189c-18.305,20.171-18.305,52.872,0,73.042c18.303,20.169,47.982,20.169,66.287,0
	c19.668-21.673,27.482-50.071,29.477-74.649C596.749,266.658,585.276,282.831,554.927,280.406z"/>
<path opacity="0.1" enable-background="new    " d="M393.365,202.123c-11.283,3.441-17.369,13.182-20.099,19.055
	c-1.158,2.491-0.262,5.544,1.997,6.819c0.67,0.379,1.386,0.559,2.092,0.559c1.67,0,3.281-1.007,4.096-2.759
	c1.941-4.178,6.149-11.021,13.661-13.677c-1.54-3.598-1.773-6.861-1.773-8.896C393.338,202.889,393.347,202.518,393.365,202.123z
	 M393.431,201.079c0.226-2.572,0.958-6.017,3.137-9.565c-8.431-2.236-13.054-9.688-15.117-14.127c-1.158-2.49-3.927-3.474-6.188-2.2
	c-2.259,1.275-3.154,4.327-1.997,6.818C376.001,187.89,382.106,197.655,393.431,201.079z"/>
<path opacity="0.1" enable-background="new    " d="M544.229,175.186c-2.26-1.274-5.031-0.29-6.189,2.199
	c-2.062,4.441-6.686,11.892-15.115,14.128c2.18,3.547,2.914,6.993,3.137,9.565c11.326-3.426,17.43-13.191,20.162-19.076
	C547.384,179.513,546.489,176.461,544.229,175.186z"/>
<path opacity="0.1" enable-background="new    " d="M538.04,225.796c0.816,1.751,2.426,2.757,4.098,2.757
	c0.705,0,1.42-0.18,2.092-0.558c2.26-1.275,3.154-4.327,1.994-6.818c-2.727-5.874-8.812-15.613-20.096-19.056
	c0.02,0.395,0.025,0.768,0.025,1.101c0,2.035-0.232,5.298-1.773,8.896C531.896,214.775,536.103,221.618,538.04,225.796z"/>
<g>
	
		<text transform="matrix(0.9662 0 0 1 182.3354 441.4717)" fill="#38648C" stroke="#38648C" stroke-miterlimit="10" font-family="'Seravek'" font-size="111.8254"> </text>
	<text transform="matrix(0.9662 0 0 1 216.0684 441.4717)"><tspan x="0" y="0" fill="#EA7E6C" stroke="#EA7E6C" stroke-width="2" stroke-miterlimit="10" font-family="'Seravek'" font-size="123.3111">S</tspan><tspan x="61.778" y="0" fill="#EA7E6C" stroke="#EA7E6C" stroke-miterlimit="10" font-family="'Seravek'" font-size="111.8254">afe</tspan><tspan x="211.733" y="0" fill="#38648C" stroke="#38648C" stroke-miterlimit="10" font-family="'Seravek'" font-size="111.8254">Kidney</tspan></text>
</g>
</svg>
