<?xml version="1.0" encoding="iso-8859-1"?>
<!-- Generator: Adobe Illustrator 19.0.0, SVG Export Plug-In . SVG Version: 6.00 Build 0)  -->
<svg version="1.1" id="Capa_1" xmlns="http://www.w3.org/2000/svg" xmlns:xlink="http://www.w3.org/1999/xlink" x="0px" y="0px"
	 viewBox="0 0 490.667 490.667" style="enable-background:new 0 0 490.667 490.667;" xml:space="preserve">
<path style="fill:#607D8B;" d="M224,384h42.667c5.891,0,10.667,4.776,10.667,10.667v42.667c0,5.891-4.776,10.667-10.667,10.667H224
	c-5.891,0-10.667-4.776-10.667-10.667v-42.667C213.333,388.776,218.109,384,224,384z"/>
<g>
	<path style="fill:#455A64;" d="M352,426.667H138.667c-29.455,0-53.333,23.878-53.333,53.333c0,5.891,4.776,10.667,10.667,10.667
		h298.667c5.891,0,10.667-4.776,10.667-10.667C405.333,450.545,381.455,426.667,352,426.667z"/>
	<path style="fill:#455A64;" d="M53.333,0h384c29.455,0,53.333,23.878,53.333,53.333V352c0,29.455-23.878,53.333-53.333,53.333h-384
		C23.878,405.333,0,381.455,0,352V53.333C0,23.878,23.878,0,53.333,0z"/>
</g>
<path style="fill:#FAFAFA;" d="M53.333,21.333h384c17.673,0,32,14.327,32,32V320h-448V53.333
	C21.333,35.66,35.66,21.333,53.333,21.333z"/>
<path style="fill:#4CAF50;" d="M416.427,341.333h-0.213c-5.891,0-10.667,4.776-10.667,10.667c0,5.891,4.776,10.667,10.667,10.667
	S426.88,357.891,426.88,352c0-5.891-4.776-10.667-10.667-10.667H416.427z"/>
<path style="fill:#2196F3;" d="M333.248,85.653L247.915,64.32c-1.696-0.416-3.467-0.416-5.163,0l-85.333,21.333
	c-4.75,1.185-8.084,5.451-8.085,10.347v128c0,32.981,70.4,64.853,91.904,73.856c2.628,1.096,5.585,1.096,8.213,0
	c21.483-9.003,91.883-40.875,91.883-73.856V96C341.332,91.104,337.998,86.838,333.248,85.653z"/>
<g>
	<polygon style="fill:#FAFAFA;" points="245.333,107.968 192,118.635 192,181.333 245.333,181.333 	"/>
	<polygon style="fill:#FAFAFA;" points="245.333,181.333 245.333,251.819 298.667,225.813 298.667,181.333 	"/>
</g>
<g>
</g>
<g>
</g>
<g>
</g>
<g>
</g>
<g>
</g>
<g>
</g>
<g>
</g>
<g>
</g>
<g>
</g>
<g>
</g>
<g>
</g>
<g>
</g>
<g>
</g>
<g>
</g>
<g>
</g>
</svg>
