<?xml version="1.0" encoding="utf-8"?>
<!-- Generator: Adobe Illustrator 24.1.0, SVG Export Plug-In . SVG Version: 6.00 Build 0)  -->
<svg version="1.1" id="Layer_1" xmlns="http://www.w3.org/2000/svg" xmlns:xlink="http://www.w3.org/1999/xlink" x="0px" y="0px"
	 viewBox="0 0 960 560" style="enable-background:new 0 0 960 560;" xml:space="preserve">
<style type="text/css">
	.st0{fill:#38648C;}
	.st1{opacity:0.1;enable-background:new    ;}
	.st2{fill:#FCAE7A;}
	.st3{fill:#F28B74;}
	.st4{opacity:0.1;stroke:#EA7E6C;stroke-miterlimit:10;enable-background:new    ;}
	.st5{font-family:'Seravek';}
	.st6{font-size:111.8254px;}
	.st7{fill:none;stroke:#38648C;stroke-miterlimit:10;}
	.st8{enable-background:new    ;}
	.st9{fill:#EA7E6C;}
</style>
<path class="st0" d="M437.1,344.3c-5.2,0-9.4-4.6-9.4-10.4v-85.1c0-7.1-4.1-13.3-10.3-15.5l-33.5-11.6c-5-1.7-7.7-7.5-6.2-13
	c1.6-5.5,6.8-8.5,11.8-6.8l33.5,11.6c14,4.8,23.5,19,23.5,35.2v85.1C446.5,339.6,442.3,344.3,437.1,344.3z"/>
<path class="st1" d="M421.1,235.3c-2.8-10.2-7.8-19.6-14.7-27.4l-16.9-5.8c-5-1.7-10.2,1.3-11.8,6.8c-1.6,5.5,1.2,11.3,6.2,13
	l33.5,11.6C418.7,233.8,420,234.5,421.1,235.3z"/>
<path class="st0" d="M482.4,344.3c-5.2,0-9.4-4.6-9.4-10.4v-85.1c0-16.2,9.4-30.4,23.5-35.2L530,202c5-1.7,10.2,1.3,11.8,6.8
	s-1.2,11.3-6.2,13l-33.5,11.6c-6.2,2.1-10.3,8.3-10.3,15.5V334C491.8,339.6,487.6,344.3,482.4,344.3z"/>
<path class="st1" d="M498.4,235.3c2.8-10.2,7.8-19.6,14.7-27.4l16.9-5.8c5-1.7,10.2,1.3,11.8,6.8s-1.2,11.3-6.2,13l-33.5,11.6
	C500.7,233.8,499.5,234.5,498.4,235.3z"/>
<path class="st2" d="M538.5,197.4L501,183c-7.9-3-14.5-9.1-18.6-17.1l-8.8-17.1c-2.9-5.6-4.5-12-4.5-18.5v-60
	c0-5.6-3.9-10.4-8.9-10.6c-5.4-0.3-9.9,4.5-9.9,10.3v60.3c0,6.5-1.5,12.9-4.5,18.5l-8.8,17.1c-4.1,8-10.8,14.1-18.6,17.1l-37.2,14.3
	c-4.9,1.9-7.7,7.7-6.1,13.1c1.3,4.4,5,7.1,8.9,7.1c1,0,2.1-0.2,3.1-0.6l37.5-14.4c12.2-4.7,22.4-14.1,28.8-26.4l5.6-10.7
	c0.4-0.7,1.3-0.7,1.6,0l5.6,10.7c6.4,12.3,16.6,21.7,28.8,26.4l37.5,14.4c1,0.4,2.1,0.6,3.1,0.6c3.9,0,7.5-2.7,8.9-6.9
	C546,205.2,543.4,199.3,538.5,197.4z"/>
<path class="st1" d="M510.4,207.2c1.3-1.4,1.6-2.6,1.6-3.9s-0.3-2.4-1.6-3.9c-4.7-5.2-8.5-11.1-11.5-17.5c0.8,0.4,1.6,0.7,2.4,1.1
	l37.2,14.3c4.9,1.9,7.7,7.7,6.1,13.1c-1.3,4.4-5,7.1-8.9,7.1c-1,0-2.1-0.2-3.1-0.6l-23-8.9C509.8,207.8,510.1,207.5,510.4,207.2z"/>
<path class="st1" d="M409.4,207.1c-1.3-1.4-1.6-2.6-1.6-3.9s0.3-2.4,1.6-3.9c4.7-5.2,8.5-11.1,11.5-17.5c-0.8,0.4-1.6,0.7-2.4,1.1
	l-37.2,14.3c-4.9,1.9-7.7,7.7-6.1,13.1c1.3,4.4,5,7.1,8.9,7.1c1,0,2.1-0.2,3.1-0.6l23-8.9C409.9,207.7,409.6,207.4,409.4,207.1z"/>
<path class="st3" d="M302.8,203.2c0,27.1,6.6,62.4,30,88.2c18.3,20.2,48,20.2,66.3,0s18.3-52.9,0-73c-5.2-5.8-5.8-11.9-5.8-15.1
	c0-3.2,0.6-9.4,5.8-15.1c18.3-20.2,18.3-52.9,0-73c-18.3-20.2-48-20.2-66.3,0C309.4,140.8,302.8,176.2,302.8,203.2z"/>
<path class="st4" d="M324.6,125.5c-16.7,24.3-21.8,54.1-21.8,77.7c0,27.1,6.6,62.4,30,88.2c18.3,20.2,48,20.2,66.3,0
	c1.4-1.6,2.7-3.2,3.9-4.9C340.4,306.2,294.5,201.5,324.6,125.5z"/>
<path class="st3" d="M616.7,203.2c0,27.1-6.6,62.4-30,88.2c-18.3,20.2-48,20.2-66.3,0s-18.3-52.9,0-73c5.2-5.8,5.8-11.9,5.8-15.1
	c0-3.2-0.6-9.4-5.8-15.1c-18.3-20.2-18.3-52.9,0-73c18.3-20.2,48-20.2,66.3,0C610.1,140.8,616.7,176.2,616.7,203.2z"/>
<path class="st1" d="M554.9,280.4c-29-2.3-37.9-36.6-32.1-65.2c-0.7,1.1-1.5,2.1-2.4,3.2c-18.3,20.2-18.3,52.9,0,73
	c18.3,20.2,48,20.2,66.3,0c19.7-21.7,27.5-50.1,29.5-74.6C596.7,266.7,585.3,282.8,554.9,280.4z"/>
<path class="st1" d="M393.4,202.1c-11.3,3.4-17.4,13.2-20.1,19.1c-1.2,2.5-0.3,5.5,2,6.8c0.7,0.4,1.4,0.6,2.1,0.6
	c1.7,0,3.3-1,4.1-2.8c1.9-4.2,6.1-11,13.7-13.7c-1.5-3.6-1.8-6.9-1.8-8.9C393.3,202.9,393.3,202.5,393.4,202.1z M393.4,201.1
	c0.2-2.6,1-6,3.1-9.6c-8.4-2.2-13.1-9.7-15.1-14.1c-1.2-2.5-3.9-3.5-6.2-2.2c-2.3,1.3-3.2,4.3-2,6.8
	C376,187.9,382.1,197.7,393.4,201.1z"/>
<path class="st1" d="M544.2,175.2c-2.3-1.3-5-0.3-6.2,2.2c-2.1,4.4-6.7,11.9-15.1,14.1c2.2,3.5,2.9,7,3.1,9.6
	c11.3-3.4,17.4-13.2,20.2-19.1C547.4,179.5,546.5,176.5,544.2,175.2z"/>
<path class="st1" d="M538,225.8c0.8,1.8,2.4,2.8,4.1,2.8c0.7,0,1.4-0.2,2.1-0.6c2.3-1.3,3.2-4.3,2-6.8c-2.7-5.9-8.8-15.6-20.1-19.1
	c0,0.4,0,0.8,0,1.1c0,2-0.2,5.3-1.8,8.9C531.9,214.8,536.1,221.6,538,225.8z"/>
<g>
	<text transform="matrix(0.9662 0 0 1 182.3354 439.4316)" class="st0 st5 st6"> </text>
	<text transform="matrix(0.9662 0 0 1 182.3354 439.4316)" class="st7 st5 st6"> </text>
	<g class="st8">
		<path class="st9" d="M315.1,296.2c-0.6,2.1-1.2,4.8-2,8.1c-0.8,3.3-1.4,6.1-1.8,8.4c-0.6,0.4-1.1,0.1-1.5-0.9
			c0.4-1.2,0.6-2.8,0.6-4.7c0-3.7-1.2-7.3-3.7-10.6c-2.5-3.3-6.4-5-11.7-5c-5.6,0-10.2,2.4-13.7,7.3c-3.5,4.9-5.3,11.4-5.3,19.5
			c0,6.2,1,12.1,3,17.5c2,5.4,4.2,10.4,6.5,15c1.8,3.5,3.3,6.5,4.5,8.9c1.2,2.4,2.1,4.6,2.9,6.6c0.7,2,1.2,3.9,1.5,5.6
			c0.3,1.8,0.4,3.9,0.4,6.4c0,4.4-0.7,8.6-2,12.8c-1.3,4.2-3.1,8-5.3,11.5c-2.2,3.5-4.6,6.7-7.2,9.5c-2.6,2.8-5.2,5-7.7,6.7
			c-6.3,4.2-13.4,6.2-21.1,6.2c-3.2,0-6.4-0.4-9.6-1.2c-3.2-0.8-6.1-2.2-8.8-4.1c-0.7-0.6-1.3-1.2-1.9-1.7c-0.6-0.5-0.9-1.1-1.1-1.7
			c0.6-3.5,1.2-7.5,2-12c0.8-4.5,1.4-8.2,2-11.1c0-0.4,0.2-0.6,0.6-0.6s0.6,0.5,0.6,1.6c-0.4,1.9-0.6,3.7-0.6,5.6
			c0,5.8,1.6,11,4.9,15.5c3.2,4.5,8.2,6.7,15,6.7c2.5,0,5.1-0.4,7.7-1.1c2.6-0.7,5-1.8,7.1-3.3c4.4-2.9,8.1-7,11.1-12.3
			c3-5.3,4.5-11.6,4.5-18.9c0-3.5-0.6-7.1-1.7-10.8c-1.1-3.6-3.3-8.5-6.5-14.5c-2.8-5.4-5-10.2-6.4-14.4c-1.5-4.2-2.2-8.9-2.2-14.4
			c0-5.4,0.8-10.8,2.4-16.2c1.6-5.4,3.6-10.2,6-14.4c0.8-1.5,2-3.2,3.5-5.2c1.5-2,3.2-3.8,5.3-5.5c2-1.7,4.4-3.1,7.2-4.4
			c2.7-1.2,5.8-1.9,9.2-1.9c2.3,0,4.4,0.5,6.5,1.4c2.1,0.9,4,2.8,5.7,5.5C314.7,293.2,315.1,294.7,315.1,296.2z"/>
	</g>
	<g class="st8">
		<path class="st9" d="M307.8,421.2c-6.8-0.6-7-8.8-4.9-16.1c2.1-7.3,7-18.2,13.2-28.3c0.8-1.2,1.7-1.1,2.5-0.1
			c2.1,3.7,1.6,8.7-1.8,15c-3.5,6.5-5.5,11-7.5,16.3c-2,5.4-1.7,9.4,0.5,9.7c3.7,0.3,9-7.4,14.2-17.1c6-11.3,8.8-19,11.9-23.7
			c1-1.6,1.6-1.8,2.4-0.7c1.4,2,2.2,6.9-0.1,12.4c-2.1,5-6.9,13.3-9.1,19c-2.5,6.3-2.1,11,1.3,10.8c4-0.2,8.9-7.5,12.7-15.3
			c0.5-1,1.3-1.1,1.7-0.1c0.4,0.9,0.5,3.9-0.9,7c-2.8,6.2-8.7,11.9-14.4,11.9c-6.2,0-8.7-4.5-8-11
			C318.2,416,313.2,421.7,307.8,421.2z"/>
		<path class="st9" d="M341.7,405.2c2.4-8.1,8.7-21.2,12.3-27c0.9-1.3,1.5-1.7,2.3-0.7c1.4,1.8,2.2,6.5-0.1,12.1
			c-2,4.9-6,12.4-8.1,18c-2.3,6.4-2.1,10.8,1,10.5c4.3-0.2,9.6-7.5,12.5-15.2c0.5-1,1.2-0.9,1.5,0c0.8,1.8,0.5,4.1-0.7,6.9
			c-2.9,6.9-8.9,11.5-14.3,11.5C340.9,421.4,339.1,414.3,341.7,405.2z M363.1,376.3c-1.2,1.6-3.9,1.2-5.4-1.7
			c-1.5-3-1.1-6.3,0.5-8.2c1.5-1.9,4.3-0.6,5.6,2.4C365,371.7,364.4,374.7,363.1,376.3z"/>
		<path class="st0" d="M370.1,418.3l6.5-8c1.6,0.7,3.8,1.3,6.6,1.9c2.3-1.6,3.9-3.7,4.7-6.2c0.8-2.5,1.6-7.4,2.3-14.8l3.9-40.4
			c-14.1,1.9-21.2,7.8-21.2,17.7c0,3,0.7,6.1,2.1,9.3l-7.6,8.2c-0.7-1.8-1-4.4-1-7.9c0-10.8,3.6-19.1,10.9-24.8
			c7.3-5.7,17.8-8.6,31.5-8.6c22.7,0,34,9.1,34,27.4c0,10.9-3.2,21-9.6,30.2c-8.5,12.2-21.4,18.3-38.7,18.3
			C387.5,420.5,379.3,419.8,370.1,418.3z M401.9,349.5l-3.9,40.7l-0.5,5.1c-0.5,4.7-1.3,8.2-2.6,10.4s-3.8,4.5-7.5,7
			c6.8,1.1,13.2,1.6,19.2,1.6c5.5,0,9.8-0.9,12.8-2.7c3-1.8,6-5.2,8.8-10.2c4-6.9,6-14.7,6-23.4c0-19.1-10.3-28.6-30.8-28.6H401.9z"
			/>
		<path class="st0" d="M469.4,404c0.8,0.6,1.3,1.1,1.3,1.7c0,1.3-1.4,3.9-4.1,7.7c-3.7,5.2-7,7.8-10.2,7.8c-2.3,0-3.4-1.7-3.4-5.2
			c0-1.5,0.5-6,1.4-13.6l1.8-14.7l0.5-3.7l0.4-3c0.2-1.3,0.2-2.3,0.2-3.2c0-1.8-0.4-2.7-1.3-2.7c-2.4,0-5,3.1-7.8,9.3
			c-0.6-0.6-0.9-1.2-0.9-1.8c0-2.2,1.8-5.2,5.3-8.9c3.5-3.7,6.3-5.6,8.4-5.6c2.3,0,3.5,1.9,3.5,5.6c0,0.7-0.1,2.2-0.4,4.4l-0.4,3.6
			c0,0.3-0.2,1.7-0.5,4.4l-1.9,15.5l-0.5,3.5c-0.4,3.4-0.6,5.7-0.6,6.9c0,1.6,0.4,2.3,1.2,2.3C463.9,414.1,466.6,410.8,469.4,404z
			 M460,360.9l3.9-11.2c3.5-1.7,6.4-4,8.6-6.9c0.3,0.5,0.5,1,0.5,1.6C473,349.3,468.7,354.8,460,360.9z"/>
		<path class="st0" d="M504.2,398.3c-3.5,6.7-7.4,12.2-11.6,16.5c-4.2,4.3-7.9,6.4-11,6.4c-4.3,0-6.4-4-6.4-12
			c0-11,3.1-20.5,9.3-28.5c6.2-8,13.6-12.1,22.1-12.1c3.2,0,6,0.5,8.3,1.4c-0.2,0.7-0.2,1-0.3,1.2l-0.6,2.9c-0.4,2-0.6,3.1-0.6,3.5
			l-3,23.9l-0.4,3.5c-0.4,3.4-0.6,5.7-0.6,6.9c0,1.6,0.4,2.3,1.2,2.3c2.6,0,5.3-3.4,8-10.1c0.8,0.6,1.3,1.2,1.3,1.7
			c0,1.3-1.3,3.8-4,7.6c-3.7,5.2-7,7.8-10.2,7.8c-2.3,0-3.4-1.8-3.4-5.3c0-1.1,0.1-2.6,0.3-4.5l0.5-4.3l0.6-4.8L504.2,398.3z
			 M506.8,376.8c-2.8-1.8-5.7-2.8-8.6-2.8c-4.4,0-8,3.1-11,9.3c-3,6.2-4.5,13.8-4.5,22.9c0,4.7,1.2,7,3.6,7c2.8,0,6.1-2.5,10.1-7.4
			c5.3-6.6,8.5-14.4,9.7-23.3L506.8,376.8z"/>
		<path class="st0" d="M543.3,403.9c0.9,0.5,1.4,1.2,1.4,2c0,2.6-1.7,5.8-5,9.6s-6.2,5.7-8.5,5.7c-2.6,0-3.9-2.2-3.9-6.5
			c0-2.6,0.1-5.3,0.4-8.1l0.5-4.8l3.6-37.7c1.1-11.5,4.5-21.1,10.2-28.8c5.7-7.7,12.3-11.5,19.7-11.5c1.8,0,3.3,0.2,4.6,0.5
			l-6.6,7.9c-1.5-0.6-3.2-0.9-5.1-0.9c-4.7,0-8.2,1.9-10.5,5.7c-2.3,3.8-3.9,10.3-4.8,19.4l-4.3,45.4c-0.3,3.5-0.5,6-0.5,7.5
			c0,3.2,0.5,4.9,1.4,4.9c1.1,0,2.5-1.1,4.1-3.2C541.5,408.8,542.6,406.4,543.3,403.9z"/>
		<path class="st0" d="M584.2,398.2c-3.2,6.6-6.5,12.1-9.9,16.5s-6.3,6.5-8.5,6.5c-3,0-4.7-3.6-5-10.9l-0.3-7.5l-0.6-15.3l-0.1-4.4
			c-0.3-5.8-1.2-8.7-2.8-8.7c-2.4,0-4.8,2.7-7.1,8c-0.8-0.7-1.2-1.4-1.2-2.1c0-2,1.5-4.5,4.5-7.6c3-3.1,5.5-4.7,7.4-4.7
			c2,0,3.4,1,4.2,3.1c0.8,2,1.3,5.8,1.6,11.3l0.9,19c0.3,7.2,1.3,10.8,3,10.8c2.5,0,5.7-3.3,9.4-10c3.7-6.7,6.1-13.3,7.2-19.7
			l1.8-11.1l8.3-3.4c-1.1,3.2-2.2,8-3.3,14.4l-6.3,36.3c-2.5,14.2-6.3,24.7-11.4,31.5c-7.7,10.1-16.6,15.2-26.8,15.2
			c-2.1,0-4.5-0.5-7.2-1.6l5.8-7.4c2.9,1.5,6,2.3,9.2,2.3c6.5,0,11.4-2.4,14.6-7.3c3.2-4.9,6-13.8,8.2-26.8L584.2,398.2z"/>
		<path class="st0" d="M598.9,418.3l6.5-6.1c2.4,3,5.5,4.5,9.2,4.5c4.5,0,6.8-2.5,6.8-7.5c0-2.8-2.1-6.7-6.2-11.6l-2.7-3.2
			c-3.9-4.7-5.9-8.6-5.9-11.5c0-4.2,1.6-7.7,4.7-10.6c3.1-2.9,7-4.3,11.6-4.3c2.5,0,5.2,0.5,8.2,1.6l-5.6,6c-2.4-2.1-5-3.1-7.9-3.1
			c-3.4,0-5.1,1.6-5.1,4.9c0,2.3,1.9,5.8,5.7,10.3l2.9,3.6c4.3,5.2,6.5,9.4,6.5,12.6c0,4.6-1.9,8.6-5.7,12.1
			c-3.8,3.5-8.1,5.2-13.1,5.2C605.2,421.2,602,420.2,598.9,418.3z"/>
		<path class="st0" d="M664.4,402.6c0.8,0.6,1.2,1.3,1.2,2.2c0,1.1-1,3-3,5.7c-5.3,7.2-10.6,10.7-15.8,10.7c-3.2,0-5.8-1.5-7.9-4.4
			s-3.1-6.7-3.1-11.2c0-8.2,2.7-16.6,8.1-25c5.4-8.4,10.7-12.7,16-12.7c3.8,0,5.7,2.4,5.7,7.1c0,5.3-2.2,10.5-6.7,15.5
			c-4.5,5.1-9.9,8.6-16.3,10.6c0.6,8.7,3.6,13,8.9,13C656.8,414.1,661.1,410.3,664.4,402.6z M642.8,394.5c0.9,0.4,1.7,0.5,2.5,0.5
			c3.9,0,7.3-1.4,10.2-4.1c2.9-2.7,4.4-6,4.4-9.6c0-4.2-1.9-6.3-5.6-6.3c-2.7,0-5.1,1.9-7.3,5.6
			C644.8,384.2,643.4,388.9,642.8,394.5z"/>
	</g>
</g>
</svg>
